<svg width="22" height="22" viewBox="0 0 22 22" fill="none" xmlns="http://www.w3.org/2000/svg">
<path d="M11 11.44C9.06398 11.44 7.47998 9.85603 7.47998 7.92002C7.47998 5.98402 9.06398 4.40002 11 4.40002C12.936 4.40002 14.52 5.98402 14.52 7.92002C14.52 9.85603 12.936 11.44 11 11.44ZM11 6.07202C9.98798 6.07202 9.15198 6.90802 9.15198 7.92002C9.15198 8.93202 9.98798 9.76803 11 9.76803C12.012 9.76803 12.848 8.93202 12.848 7.92002C12.848 6.90802 12.012 6.07202 11 6.07202Z" fill="#8C939E"/>
<path d="M14.784 11.792C14.476 11.396 13.948 11.352 13.552 11.616C13.552 11.616 12.584 12.32 11 12.32C9.41597 12.32 8.44797 11.616 8.44797 11.616C8.05197 11.308 7.52397 11.396 7.21597 11.792C6.90797 12.188 6.99597 12.716 7.39197 13.024C7.43597 13.068 8.35997 13.772 9.89997 13.992L7.56797 16.368C7.21597 16.72 7.21597 17.292 7.56797 17.6C7.74397 17.776 7.96397 17.864 8.18397 17.864C8.40397 17.864 8.62397 17.776 8.79997 17.6L11 15.356L13.2 17.6C13.376 17.776 13.596 17.864 13.816 17.864C14.036 17.864 14.256 17.776 14.432 17.6C14.784 17.248 14.784 16.72 14.432 16.368L12.1 13.992C13.64 13.728 14.564 13.024 14.608 13.024C15.004 12.716 15.092 12.144 14.784 11.792V11.792Z" fill="#8C939E"/>
</svg>
