<svg width="13" height="12" viewBox="0 0 13 12" fill="none" xmlns="http://www.w3.org/2000/svg">
<path d="M0.687601 1.49125C0.687601 2.67966 1.04877 3.53716 1.76026 4.04068C2.34363 4.45432 3.01965 4.51636 3.37142 4.51636C3.45682 4.51636 3.52558 4.51159 3.57335 4.50841C3.57335 4.50841 3.46189 5.30705 4.00039 6.09614H3.97578C3.04281 6.09614 0 6.31011 0 9.0608C0 11.8576 2.79455 12 3.35549 12C3.39964 12 3.4257 11.9984 3.4257 11.9984C3.43149 11.9984 3.4713 12 3.54006 12C3.89978 12 4.82985 11.9507 5.69334 11.4885C6.81376 10.8919 7.38194 9.85068 7.38194 8.39818C7.38194 6.995 6.51628 6.15977 5.88442 5.54886C5.49864 5.1758 5.16497 4.85443 5.16497 4.54182C5.16497 4.22364 5.40889 3.98421 5.7165 3.68114C6.21519 3.19193 6.68565 2.49432 6.68565 1.17545C6.68565 0.0164773 6.54886 -0.762273 5.70564 -1.25625C5.79322 -1.30557 6.10445 -1.34136 6.25789 -1.36523C6.7146 -1.43364 7.38266 -1.51159 7.38266 -1.92125V-2H4.05395C4.02066 -1.99841 0.687601 -1.86318 0.687601 1.49125V1.49125ZM6.06102 8.66068C6.12471 9.77909 5.25399 10.604 3.94611 10.7082C2.61795 10.8156 1.52503 10.1585 1.46133 9.04091C1.43021 8.50318 1.64518 7.97818 2.0657 7.55898C2.49201 7.135 3.07756 6.8725 3.71449 6.8208C3.78977 6.81602 3.86432 6.81125 3.93887 6.81125C5.16859 6.81205 6.00095 7.60591 6.06102 8.66068V8.66068ZM5.19175 0.725227C5.51818 1.98841 5.02528 3.30727 4.23924 3.55148C4.14876 3.57919 4.05524 3.59311 3.9613 3.59284C3.24186 3.59284 2.52892 2.79261 2.26402 1.68932C2.11636 1.07205 2.12867 0.529546 2.29803 0.00931839C2.46378 -0.50375 2.76343 -0.848182 3.1398 -0.965114C3.23028 -0.992955 3.32365 -1.00727 3.41846 -1.00727C4.28701 -1.00727 4.84578 -0.611136 5.19175 0.725227V0.725227ZM10.8286 3.40909V1.02273H9.38105V3.40909H7.20968V5H9.38105V7.38636H10.8286V5H13V3.40909H10.8286Z" fill="#8C939E"/>
</svg>
