<svg width="17" height="14" viewBox="0 0 17 14" fill="none" xmlns="http://www.w3.org/2000/svg">
<path d="M16.063 1.572C15.4723 1.83764 14.8377 2.01713 14.1706 2.09826C14.8589 1.68026 15.3739 1.02237 15.6194 0.247352C14.9727 0.637199 14.2649 0.911609 13.5268 1.05865C13.0305 0.520799 12.3731 0.164302 11.6566 0.0445083C10.9402 -0.0752856 10.2048 0.0483261 9.56467 0.396152C8.92454 0.743978 8.41547 1.29656 8.1165 1.9681C7.81752 2.63964 7.74536 3.39257 7.91123 4.11C6.60084 4.04323 5.31893 3.69756 4.14869 3.09545C2.97845 2.49333 1.94604 1.64822 1.11845 0.61495C0.835479 1.11035 0.672769 1.68472 0.672769 2.29642C0.672454 2.8471 0.806073 3.38934 1.06177 3.87503C1.31747 4.36073 1.68734 4.77486 2.13857 5.08069C1.61527 5.06379 1.10351 4.92028 0.645887 4.66211V4.70519C0.645834 5.47754 0.909075 6.22611 1.39094 6.8239C1.87281 7.42169 2.54363 7.83188 3.28957 7.98485C2.80411 8.11819 2.29515 8.13783 1.80113 8.04229C2.01159 8.70685 2.42154 9.28798 2.9736 9.70432C3.52566 10.1207 4.19219 10.3514 4.87988 10.3642C3.71249 11.2942 2.27078 11.7987 0.786666 11.7965C0.52377 11.7966 0.261097 11.781 0 11.7499C1.50646 12.7329 3.26009 13.2546 5.05108 13.2526C11.1138 13.2526 14.4281 8.15645 14.4281 3.73666C14.4281 3.59307 14.4246 3.44804 14.4182 3.30444C15.0629 2.83129 15.6194 2.24537 16.0616 1.57415L16.063 1.572V1.572Z" fill="#8C939E"/>
</svg>
